<mxfile host="Electron" modified="2024-02-11T20:26:10.500Z" agent="Mozilla/5.0 (Windows NT 10.0; Win64; x64) AppleWebKit/537.36 (KHTML, like Gecko) draw.io/23.0.2 Chrome/120.0.6099.109 Electron/28.1.0 Safari/537.36" etag="oodSEa76nezpoRCpySFl" version="23.0.2" type="device">
  <diagram name="Page-1" id="s9FbPKoB82VC-xrq2Fql">
    <mxGraphModel dx="2284" dy="1936" grid="1" gridSize="10" guides="1" tooltips="1" connect="1" arrows="1" fold="1" page="1" pageScale="1" pageWidth="850" pageHeight="1100" math="0" shadow="0">
      <root>
        <mxCell id="0" />
        <mxCell id="1" parent="0" />
        <mxCell id="3avNDPh2e-aEmpYnnHf4-159" value="Initialization phase" style="swimlane;whiteSpace=wrap;html=1;rounded=1;swimlaneFillColor=default;" parent="1" vertex="1">
          <mxGeometry x="-320" y="-10" width="1730" height="1290" as="geometry">
            <mxRectangle x="-320" y="20" width="150" height="30" as="alternateBounds" />
          </mxGeometry>
        </mxCell>
        <mxCell id="3avNDPh2e-aEmpYnnHf4-196" style="edgeStyle=orthogonalEdgeStyle;rounded=0;orthogonalLoop=1;jettySize=auto;html=1;dashed=1;strokeColor=#999999;" parent="3avNDPh2e-aEmpYnnHf4-159" source="3avNDPh2e-aEmpYnnHf4-172" target="3avNDPh2e-aEmpYnnHf4-24" edge="1">
          <mxGeometry relative="1" as="geometry" />
        </mxCell>
        <mxCell id="3avNDPh2e-aEmpYnnHf4-172" value="APacmanGameMode::Init" style="swimlane;whiteSpace=wrap;html=1;rounded=1;swimlaneLine=0;collapsible=0;strokeColor=none;swimlaneFillColor=#999999;fillColor=#999999;fillStyle=cross-hatch;fontFamily=Courier New;labelBackgroundColor=default;" parent="3avNDPh2e-aEmpYnnHf4-159" vertex="1">
          <mxGeometry x="570" y="277" width="240" height="223" as="geometry" />
        </mxCell>
        <mxCell id="3avNDPh2e-aEmpYnnHf4-139" value="APacmanLevelState::Init&lt;br style=&quot;border-color: var(--border-color); padding: 0px; margin: 0px; font-family: Helvetica;&quot;&gt;&lt;br style=&quot;border-color: var(--border-color); padding: 0px; margin: 0px; font-family: Helvetica;&quot;&gt;&lt;span style=&quot;font-family: Helvetica;&quot;&gt;Call&amp;nbsp;&lt;/span&gt;Init&lt;span style=&quot;font-family: Helvetica;&quot;&gt;&amp;nbsp;on all registered&amp;nbsp;&lt;/span&gt;&lt;font face=&quot;Courier New&quot;&gt;IInitializable&amp;nbsp;&lt;/font&gt;&lt;span style=&quot;font-family: Helvetica;&quot;&gt;objects&lt;/span&gt;" style="whiteSpace=wrap;html=1;fontFamily=Courier New;rounded=1;arcSize=14;strokeWidth=2;" parent="3avNDPh2e-aEmpYnnHf4-172" vertex="1">
          <mxGeometry x="10" y="133" width="220" height="80" as="geometry" />
        </mxCell>
        <mxCell id="3avNDPh2e-aEmpYnnHf4-109" value="&lt;font&gt;UTimeModeManager::Init&lt;br&gt;&lt;font face=&quot;Helvetica&quot;&gt;(Level settings are chosen based on the level in the game instance)&lt;/font&gt;&lt;br&gt;&lt;/font&gt;" style="whiteSpace=wrap;html=1;fontFamily=Courier New;rounded=1;arcSize=14;strokeWidth=2;" parent="3avNDPh2e-aEmpYnnHf4-172" vertex="1">
          <mxGeometry x="30" y="34" width="180" height="76" as="geometry" />
        </mxCell>
        <mxCell id="3avNDPh2e-aEmpYnnHf4-137" style="edgeStyle=orthogonalEdgeStyle;rounded=1;orthogonalLoop=1;jettySize=auto;html=1;curved=0;endArrow=open;endFill=0;strokeColor=#666666;strokeWidth=2;" parent="3avNDPh2e-aEmpYnnHf4-172" source="3avNDPh2e-aEmpYnnHf4-109" target="3avNDPh2e-aEmpYnnHf4-139" edge="1">
          <mxGeometry relative="1" as="geometry">
            <mxPoint x="110" y="93" as="targetPoint" />
          </mxGeometry>
        </mxCell>
        <mxCell id="3avNDPh2e-aEmpYnnHf4-191" style="edgeStyle=orthogonalEdgeStyle;rounded=1;orthogonalLoop=1;jettySize=auto;html=1;curved=0;strokeColor=#666666;endArrow=open;endFill=0;strokeWidth=2;" parent="3avNDPh2e-aEmpYnnHf4-159" source="3avNDPh2e-aEmpYnnHf4-24" target="3avNDPh2e-aEmpYnnHf4-174" edge="1">
          <mxGeometry relative="1" as="geometry" />
        </mxCell>
        <mxCell id="3avNDPh2e-aEmpYnnHf4-24" value="Play clicked" style="strokeWidth=2;html=1;shape=mxgraph.flowchart.start_1;whiteSpace=wrap;fillColor=#FF9999;" parent="3avNDPh2e-aEmpYnnHf4-159" vertex="1">
          <mxGeometry x="640" y="568" width="100" height="60" as="geometry" />
        </mxCell>
        <mxCell id="3avNDPh2e-aEmpYnnHf4-98" style="edgeStyle=orthogonalEdgeStyle;rounded=1;orthogonalLoop=1;jettySize=auto;html=1;curved=0;endArrow=open;endFill=0;strokeColor=#666666;strokeWidth=2;" parent="3avNDPh2e-aEmpYnnHf4-159" source="3avNDPh2e-aEmpYnnHf4-28" target="3avNDPh2e-aEmpYnnHf4-82" edge="1">
          <mxGeometry relative="1" as="geometry">
            <mxPoint x="790" y="1053" as="sourcePoint" />
          </mxGeometry>
        </mxCell>
        <mxCell id="3avNDPh2e-aEmpYnnHf4-54" value="BeginPlay" style="swimlane;whiteSpace=wrap;html=1;fontFamily=Courier New;fillStyle=hatch;fillColor=none;fontColor=#333333;strokeColor=default;swimlaneFillColor=none;rounded=1;swimlaneLine=0;glass=0;shadow=0;strokeWidth=2;" parent="3avNDPh2e-aEmpYnnHf4-159" vertex="1">
          <mxGeometry x="880" y="83" width="820" height="460" as="geometry">
            <mxRectangle x="610" y="130" width="180" height="30" as="alternateBounds" />
          </mxGeometry>
        </mxCell>
        <mxCell id="3avNDPh2e-aEmpYnnHf4-57" style="edgeStyle=orthogonalEdgeStyle;rounded=0;orthogonalLoop=1;jettySize=auto;html=1;" parent="3avNDPh2e-aEmpYnnHf4-54" edge="1">
          <mxGeometry relative="1" as="geometry">
            <mxPoint x="100" y="115" as="targetPoint" />
          </mxGeometry>
        </mxCell>
        <mxCell id="3avNDPh2e-aEmpYnnHf4-36" value="ABoardPawn::BeginPlay" style="swimlane;whiteSpace=wrap;html=1;fontFamily=Courier New;fillStyle=hatch;fillColor=#CC99FF;fontColor=#333333;strokeColor=default;swimlaneFillColor=#CC99FF;rounded=1;swimlaneLine=0;glass=0;shadow=0;" parent="3avNDPh2e-aEmpYnnHf4-54" vertex="1">
          <mxGeometry x="30" y="28" width="200" height="190" as="geometry">
            <mxRectangle x="510" y="100" width="180" height="30" as="alternateBounds" />
          </mxGeometry>
        </mxCell>
        <mxCell id="3avNDPh2e-aEmpYnnHf4-32" value="Disable colliders" style="rounded=1;whiteSpace=wrap;html=1;absoluteArcSize=1;arcSize=14;strokeWidth=2;" parent="3avNDPh2e-aEmpYnnHf4-36" vertex="1">
          <mxGeometry x="50" y="35" width="100" height="50" as="geometry" />
        </mxCell>
        <mxCell id="3avNDPh2e-aEmpYnnHf4-33" value="Register to &lt;font face=&quot;Courier New&quot;&gt;APacmanLevelState&lt;/font&gt;" style="rounded=1;whiteSpace=wrap;html=1;absoluteArcSize=1;arcSize=14;strokeWidth=2;" parent="3avNDPh2e-aEmpYnnHf4-36" vertex="1">
          <mxGeometry x="30" y="115" width="140" height="50" as="geometry" />
        </mxCell>
        <mxCell id="3avNDPh2e-aEmpYnnHf4-34" style="edgeStyle=orthogonalEdgeStyle;rounded=1;orthogonalLoop=1;jettySize=auto;html=1;curved=0;endArrow=open;endFill=0;strokeColor=#666666;strokeWidth=2;" parent="3avNDPh2e-aEmpYnnHf4-36" source="3avNDPh2e-aEmpYnnHf4-32" target="3avNDPh2e-aEmpYnnHf4-33" edge="1">
          <mxGeometry relative="1" as="geometry" />
        </mxCell>
        <mxCell id="3avNDPh2e-aEmpYnnHf4-37" value="AGhostPawn::BeginPlay" style="swimlane;whiteSpace=wrap;html=1;fontFamily=Courier New;fillStyle=hatch;fillColor=#CC99FF;fontColor=#333333;strokeColor=default;swimlaneFillColor=#CC99FF;rounded=1;swimlaneLine=0;glass=0;shadow=0;" parent="3avNDPh2e-aEmpYnnHf4-54" vertex="1">
          <mxGeometry x="260" y="28" width="200" height="190" as="geometry">
            <mxRectangle x="510" y="100" width="180" height="30" as="alternateBounds" />
          </mxGeometry>
        </mxCell>
        <mxCell id="3avNDPh2e-aEmpYnnHf4-38" value="ABoardPawn::BeginPlay" style="rounded=1;whiteSpace=wrap;html=1;absoluteArcSize=1;arcSize=14;strokeWidth=2;fontFamily=Courier New;" parent="3avNDPh2e-aEmpYnnHf4-37" vertex="1">
          <mxGeometry x="20" y="35" width="160" height="50" as="geometry" />
        </mxCell>
        <mxCell id="3avNDPh2e-aEmpYnnHf4-39" value="Spawn &lt;font face=&quot;Courier New&quot;&gt;AGhostAiController&lt;/font&gt; and let it possess &lt;font face=&quot;Courier New&quot;&gt;this&lt;/font&gt;" style="rounded=1;whiteSpace=wrap;html=1;absoluteArcSize=1;arcSize=14;strokeWidth=2;" parent="3avNDPh2e-aEmpYnnHf4-37" vertex="1">
          <mxGeometry x="10" y="115" width="180" height="55" as="geometry" />
        </mxCell>
        <mxCell id="3avNDPh2e-aEmpYnnHf4-40" style="edgeStyle=orthogonalEdgeStyle;rounded=1;orthogonalLoop=1;jettySize=auto;html=1;curved=0;endArrow=open;endFill=0;strokeColor=#666666;strokeWidth=2;" parent="3avNDPh2e-aEmpYnnHf4-37" source="3avNDPh2e-aEmpYnnHf4-38" target="3avNDPh2e-aEmpYnnHf4-39" edge="1">
          <mxGeometry relative="1" as="geometry" />
        </mxCell>
        <mxCell id="3avNDPh2e-aEmpYnnHf4-41" value="ATile::BeginPlay" style="swimlane;whiteSpace=wrap;html=1;fontFamily=Courier New;fillStyle=hatch;fillColor=#99FF99;fontColor=#333333;strokeColor=default;swimlaneFillColor=#99FF99;rounded=1;swimlaneLine=0;glass=0;shadow=0;" parent="3avNDPh2e-aEmpYnnHf4-54" vertex="1">
          <mxGeometry x="30" y="268" width="200" height="100" as="geometry">
            <mxRectangle x="510" y="100" width="180" height="30" as="alternateBounds" />
          </mxGeometry>
        </mxCell>
        <mxCell id="3avNDPh2e-aEmpYnnHf4-43" value="Register to &lt;font face=&quot;Courier New&quot;&gt;APacmanLevelState&lt;/font&gt;" style="rounded=1;whiteSpace=wrap;html=1;absoluteArcSize=1;arcSize=14;strokeWidth=2;" parent="3avNDPh2e-aEmpYnnHf4-41" vertex="1">
          <mxGeometry x="30" y="34" width="140" height="50" as="geometry" />
        </mxCell>
        <mxCell id="3avNDPh2e-aEmpYnnHf4-45" value="AWalkableTile::BeginPlay" style="swimlane;whiteSpace=wrap;html=1;fontFamily=Courier New;fillStyle=hatch;fillColor=#99FF99;fontColor=#333333;strokeColor=default;swimlaneFillColor=#99FF99;rounded=1;swimlaneLine=0;glass=0;shadow=0;" parent="3avNDPh2e-aEmpYnnHf4-54" vertex="1">
          <mxGeometry x="260" y="268" width="240" height="180" as="geometry">
            <mxRectangle x="510" y="100" width="180" height="30" as="alternateBounds" />
          </mxGeometry>
        </mxCell>
        <mxCell id="3avNDPh2e-aEmpYnnHf4-48" style="edgeStyle=orthogonalEdgeStyle;rounded=1;orthogonalLoop=1;jettySize=auto;html=1;curved=0;endArrow=open;endFill=0;strokeColor=#666666;strokeWidth=2;" parent="3avNDPh2e-aEmpYnnHf4-45" source="3avNDPh2e-aEmpYnnHf4-46" target="3avNDPh2e-aEmpYnnHf4-47" edge="1">
          <mxGeometry relative="1" as="geometry" />
        </mxCell>
        <mxCell id="3avNDPh2e-aEmpYnnHf4-46" value="ATile::BeginPlay" style="rounded=1;whiteSpace=wrap;html=1;absoluteArcSize=1;arcSize=14;strokeWidth=2;fontFamily=Courier New;" parent="3avNDPh2e-aEmpYnnHf4-45" vertex="1">
          <mxGeometry x="50" y="34" width="140" height="50" as="geometry" />
        </mxCell>
        <mxCell id="3avNDPh2e-aEmpYnnHf4-47" value="Resize and position &lt;font face=&quot;Courier New&quot;&gt;UTileFullTrigger&lt;/font&gt; and &lt;font face=&quot;Courier New&quot;&gt;UTileCentralTrigger&lt;/font&gt;" style="rounded=1;whiteSpace=wrap;html=1;absoluteArcSize=1;arcSize=14;strokeWidth=2;fontFamily=Helvetica;" parent="3avNDPh2e-aEmpYnnHf4-45" vertex="1">
          <mxGeometry x="30" y="110" width="180" height="50" as="geometry" />
        </mxCell>
        <mxCell id="3avNDPh2e-aEmpYnnHf4-151" value="UUiManager::BeginPlay" style="swimlane;whiteSpace=wrap;html=1;fontFamily=Courier New;fillStyle=hatch;fillColor=#99CCFF;fontColor=#333333;strokeColor=default;swimlaneFillColor=#99CCFF;rounded=1;swimlaneLine=0;glass=0;shadow=0;" parent="3avNDPh2e-aEmpYnnHf4-54" vertex="1">
          <mxGeometry x="550" y="30" width="200" height="180" as="geometry">
            <mxRectangle x="510" y="100" width="180" height="30" as="alternateBounds" />
          </mxGeometry>
        </mxCell>
        <mxCell id="3avNDPh2e-aEmpYnnHf4-152" value="&lt;font face=&quot;Helvetica&quot;&gt;Create the UIs (do not show them)&lt;/font&gt;" style="rounded=1;whiteSpace=wrap;html=1;absoluteArcSize=1;arcSize=14;strokeWidth=2;fontFamily=Courier New;" parent="3avNDPh2e-aEmpYnnHf4-151" vertex="1">
          <mxGeometry x="20" y="35" width="160" height="50" as="geometry" />
        </mxCell>
        <mxCell id="3avNDPh2e-aEmpYnnHf4-153" value="Show &lt;font face=&quot;Courier New&quot;&gt;MainMenu&lt;/font&gt;" style="rounded=1;whiteSpace=wrap;html=1;absoluteArcSize=1;arcSize=14;strokeWidth=2;" parent="3avNDPh2e-aEmpYnnHf4-151" vertex="1">
          <mxGeometry x="30" y="125" width="140" height="35" as="geometry" />
        </mxCell>
        <mxCell id="3avNDPh2e-aEmpYnnHf4-154" style="edgeStyle=orthogonalEdgeStyle;rounded=1;orthogonalLoop=1;jettySize=auto;html=1;curved=0;endArrow=open;endFill=0;strokeColor=#666666;strokeWidth=2;" parent="3avNDPh2e-aEmpYnnHf4-151" source="3avNDPh2e-aEmpYnnHf4-152" target="3avNDPh2e-aEmpYnnHf4-153" edge="1">
          <mxGeometry relative="1" as="geometry" />
        </mxCell>
        <mxCell id="3avNDPh2e-aEmpYnnHf4-155" value="APacmanPlayerController::BeginPlay" style="swimlane;whiteSpace=wrap;html=1;fontFamily=Courier New;fillStyle=hatch;fillColor=#FFFF99;fontColor=#333333;strokeColor=default;swimlaneFillColor=#FFFF99;rounded=1;swimlaneLine=0;glass=0;shadow=0;" parent="3avNDPh2e-aEmpYnnHf4-54" vertex="1">
          <mxGeometry x="535" y="268" width="260" height="102" as="geometry">
            <mxRectangle x="510" y="100" width="180" height="30" as="alternateBounds" />
          </mxGeometry>
        </mxCell>
        <mxCell id="3avNDPh2e-aEmpYnnHf4-156" value="&lt;font face=&quot;Helvetica&quot;&gt;Find the &lt;/font&gt;APacmanPawn &lt;font face=&quot;Helvetica&quot;&gt;(there should be only one) and &lt;/font&gt;&lt;font face=&quot;Courier New&quot;&gt;Possess &lt;/font&gt;&lt;font face=&quot;Helvetica&quot;&gt;it&lt;/font&gt;" style="rounded=1;whiteSpace=wrap;html=1;absoluteArcSize=1;arcSize=14;strokeWidth=2;fontFamily=Courier New;" parent="3avNDPh2e-aEmpYnnHf4-155" vertex="1">
          <mxGeometry x="60" y="34" width="160" height="50" as="geometry" />
        </mxCell>
        <mxCell id="3avNDPh2e-aEmpYnnHf4-80" style="edgeStyle=orthogonalEdgeStyle;rounded=1;orthogonalLoop=1;jettySize=auto;html=1;curved=0;endArrow=open;endFill=0;strokeColor=#666666;strokeWidth=2;" parent="3avNDPh2e-aEmpYnnHf4-159" source="3avNDPh2e-aEmpYnnHf4-8" target="3avNDPh2e-aEmpYnnHf4-54" edge="1">
          <mxGeometry relative="1" as="geometry">
            <Array as="points">
              <mxPoint x="860" y="203" />
              <mxPoint x="860" y="313" />
            </Array>
          </mxGeometry>
        </mxCell>
        <mxCell id="3avNDPh2e-aEmpYnnHf4-60" value="IInitializable::Init" style="swimlane;whiteSpace=wrap;html=1;fontFamily=Courier New;fillStyle=hatch;fillColor=none;fontColor=#333333;strokeColor=default;swimlaneFillColor=none;rounded=1;swimlaneLine=0;glass=0;shadow=0;strokeWidth=2;" parent="3avNDPh2e-aEmpYnnHf4-159" vertex="1">
          <mxGeometry x="30" y="373" width="490" height="520" as="geometry">
            <mxRectangle x="-310" y="345" width="180" height="30" as="alternateBounds" />
          </mxGeometry>
        </mxCell>
        <mxCell id="3avNDPh2e-aEmpYnnHf4-61" style="edgeStyle=orthogonalEdgeStyle;rounded=0;orthogonalLoop=1;jettySize=auto;html=1;" parent="3avNDPh2e-aEmpYnnHf4-60" edge="1">
          <mxGeometry relative="1" as="geometry">
            <mxPoint x="100" y="115" as="targetPoint" />
          </mxGeometry>
        </mxCell>
        <mxCell id="3avNDPh2e-aEmpYnnHf4-62" value="ABoardPawn::Init" style="swimlane;whiteSpace=wrap;html=1;fontFamily=Courier New;fillStyle=hatch;fillColor=#CC99FF;fontColor=#333333;strokeColor=default;swimlaneFillColor=#CC99FF;rounded=1;swimlaneLine=0;glass=0;shadow=0;" parent="3avNDPh2e-aEmpYnnHf4-60" vertex="1">
          <mxGeometry x="30" y="28" width="200" height="252" as="geometry">
            <mxRectangle x="510" y="100" width="180" height="30" as="alternateBounds" />
          </mxGeometry>
        </mxCell>
        <mxCell id="3avNDPh2e-aEmpYnnHf4-63" value="Disable colliders" style="rounded=1;whiteSpace=wrap;html=1;absoluteArcSize=1;arcSize=14;strokeWidth=2;" parent="3avNDPh2e-aEmpYnnHf4-62" vertex="1">
          <mxGeometry x="50" y="35" width="100" height="50" as="geometry" />
        </mxCell>
        <mxCell id="3avNDPh2e-aEmpYnnHf4-77" style="edgeStyle=orthogonalEdgeStyle;rounded=1;orthogonalLoop=1;jettySize=auto;html=1;curved=0;endArrow=open;endFill=0;strokeColor=#666666;strokeWidth=2;" parent="3avNDPh2e-aEmpYnnHf4-62" source="3avNDPh2e-aEmpYnnHf4-64" target="3avNDPh2e-aEmpYnnHf4-76" edge="1">
          <mxGeometry relative="1" as="geometry" />
        </mxCell>
        <mxCell id="3avNDPh2e-aEmpYnnHf4-64" value="Set &lt;font face=&quot;Courier New&quot;&gt;CurrentTile &lt;/font&gt;to &lt;font face=&quot;Courier New&quot;&gt;SpawnTile&lt;/font&gt;" style="rounded=1;whiteSpace=wrap;html=1;absoluteArcSize=1;arcSize=14;strokeWidth=2;" parent="3avNDPh2e-aEmpYnnHf4-62" vertex="1">
          <mxGeometry x="30" y="115" width="140" height="50" as="geometry" />
        </mxCell>
        <mxCell id="3avNDPh2e-aEmpYnnHf4-65" style="edgeStyle=orthogonalEdgeStyle;rounded=1;orthogonalLoop=1;jettySize=auto;html=1;curved=0;endArrow=open;endFill=0;strokeColor=#666666;strokeWidth=2;" parent="3avNDPh2e-aEmpYnnHf4-62" source="3avNDPh2e-aEmpYnnHf4-63" target="3avNDPh2e-aEmpYnnHf4-64" edge="1">
          <mxGeometry relative="1" as="geometry" />
        </mxCell>
        <mxCell id="3avNDPh2e-aEmpYnnHf4-76" value="Place on &lt;font face=&quot;Courier New&quot;&gt;SpawnTile&lt;/font&gt;" style="rounded=1;whiteSpace=wrap;html=1;absoluteArcSize=1;arcSize=14;strokeWidth=2;" parent="3avNDPh2e-aEmpYnnHf4-62" vertex="1">
          <mxGeometry x="30" y="187" width="140" height="50" as="geometry" />
        </mxCell>
        <mxCell id="3avNDPh2e-aEmpYnnHf4-66" value="AGhostPawn::Init" style="swimlane;whiteSpace=wrap;html=1;fontFamily=Courier New;fillStyle=hatch;fillColor=#CC99FF;fontColor=#333333;strokeColor=default;swimlaneFillColor=#CC99FF;rounded=1;swimlaneLine=0;glass=0;shadow=0;" parent="3avNDPh2e-aEmpYnnHf4-60" vertex="1">
          <mxGeometry x="270" y="28" width="200" height="190" as="geometry">
            <mxRectangle x="510" y="100" width="180" height="30" as="alternateBounds" />
          </mxGeometry>
        </mxCell>
        <mxCell id="3avNDPh2e-aEmpYnnHf4-67" value="ABoardPawn::Init" style="rounded=1;whiteSpace=wrap;html=1;absoluteArcSize=1;arcSize=14;strokeWidth=2;fontFamily=Courier New;" parent="3avNDPh2e-aEmpYnnHf4-66" vertex="1">
          <mxGeometry x="20" y="35" width="160" height="50" as="geometry" />
        </mxCell>
        <mxCell id="3avNDPh2e-aEmpYnnHf4-68" value="Set &lt;font face=&quot;Courier New&quot;&gt;HOME &lt;/font&gt;mode" style="rounded=1;whiteSpace=wrap;html=1;absoluteArcSize=1;arcSize=14;strokeWidth=2;" parent="3avNDPh2e-aEmpYnnHf4-66" vertex="1">
          <mxGeometry x="40" y="125" width="120" height="35" as="geometry" />
        </mxCell>
        <mxCell id="3avNDPh2e-aEmpYnnHf4-69" style="edgeStyle=orthogonalEdgeStyle;rounded=1;orthogonalLoop=1;jettySize=auto;html=1;curved=0;endArrow=open;endFill=0;strokeColor=#666666;strokeWidth=2;" parent="3avNDPh2e-aEmpYnnHf4-66" source="3avNDPh2e-aEmpYnnHf4-67" target="3avNDPh2e-aEmpYnnHf4-68" edge="1">
          <mxGeometry relative="1" as="geometry" />
        </mxCell>
        <mxCell id="3avNDPh2e-aEmpYnnHf4-70" value="ATile::Init" style="swimlane;whiteSpace=wrap;html=1;fontFamily=Courier New;fillStyle=hatch;fillColor=#99FF99;fontColor=#333333;strokeColor=default;swimlaneFillColor=#99FF99;rounded=1;swimlaneLine=0;glass=0;shadow=0;" parent="3avNDPh2e-aEmpYnnHf4-60" vertex="1">
          <mxGeometry x="30" y="320" width="200" height="40" as="geometry">
            <mxRectangle x="510" y="100" width="180" height="30" as="alternateBounds" />
          </mxGeometry>
        </mxCell>
        <mxCell id="3avNDPh2e-aEmpYnnHf4-72" value="AWalkableTile::Init" style="swimlane;whiteSpace=wrap;html=1;fontFamily=Courier New;fillStyle=hatch;fillColor=#99FF99;fontColor=#333333;strokeColor=default;swimlaneFillColor=#99FF99;rounded=1;swimlaneLine=0;glass=0;shadow=0;" parent="3avNDPh2e-aEmpYnnHf4-60" vertex="1">
          <mxGeometry x="280" y="320" width="180" height="180" as="geometry">
            <mxRectangle x="510" y="100" width="180" height="30" as="alternateBounds" />
          </mxGeometry>
        </mxCell>
        <mxCell id="3avNDPh2e-aEmpYnnHf4-73" style="edgeStyle=orthogonalEdgeStyle;rounded=1;orthogonalLoop=1;jettySize=auto;html=1;curved=0;endArrow=open;endFill=0;strokeColor=#666666;strokeWidth=2;" parent="3avNDPh2e-aEmpYnnHf4-72" source="3avNDPh2e-aEmpYnnHf4-74" target="3avNDPh2e-aEmpYnnHf4-75" edge="1">
          <mxGeometry relative="1" as="geometry" />
        </mxCell>
        <mxCell id="3avNDPh2e-aEmpYnnHf4-74" value="ATile::Init" style="rounded=1;whiteSpace=wrap;html=1;absoluteArcSize=1;arcSize=14;strokeWidth=2;fontFamily=Courier New;" parent="3avNDPh2e-aEmpYnnHf4-72" vertex="1">
          <mxGeometry x="32" y="34" width="120" height="50" as="geometry" />
        </mxCell>
        <mxCell id="3avNDPh2e-aEmpYnnHf4-75" value="&lt;font&gt;Destroy old food (if present)&lt;/font&gt;" style="rounded=1;whiteSpace=wrap;html=1;absoluteArcSize=1;arcSize=14;strokeWidth=2;fontFamily=Helvetica;" parent="3avNDPh2e-aEmpYnnHf4-72" vertex="1">
          <mxGeometry x="32" y="110" width="120" height="50" as="geometry" />
        </mxCell>
        <mxCell id="3avNDPh2e-aEmpYnnHf4-82" value="IStartableStoppable::Start" style="swimlane;whiteSpace=wrap;html=1;fontFamily=Courier New;fillStyle=hatch;fillColor=none;fontColor=#333333;strokeColor=default;swimlaneFillColor=none;rounded=1;swimlaneLine=0;glass=0;shadow=0;strokeWidth=2;" parent="3avNDPh2e-aEmpYnnHf4-159" vertex="1">
          <mxGeometry x="880" y="578" width="820" height="290" as="geometry">
            <mxRectangle x="610" y="660" width="180" height="30" as="alternateBounds" />
          </mxGeometry>
        </mxCell>
        <mxCell id="3avNDPh2e-aEmpYnnHf4-83" style="edgeStyle=orthogonalEdgeStyle;rounded=0;orthogonalLoop=1;jettySize=auto;html=1;" parent="3avNDPh2e-aEmpYnnHf4-82" edge="1">
          <mxGeometry relative="1" as="geometry">
            <mxPoint x="100" y="115" as="targetPoint" />
          </mxGeometry>
        </mxCell>
        <mxCell id="3avNDPh2e-aEmpYnnHf4-84" value="ABoardPawn::Start" style="swimlane;whiteSpace=wrap;html=1;fontFamily=Courier New;fillStyle=hatch;fillColor=#CC99FF;fontColor=#333333;strokeColor=default;swimlaneFillColor=#CC99FF;rounded=1;swimlaneLine=0;glass=0;shadow=0;" parent="3avNDPh2e-aEmpYnnHf4-82" vertex="1">
          <mxGeometry x="30" y="28" width="240" height="190" as="geometry">
            <mxRectangle x="510" y="100" width="180" height="30" as="alternateBounds" />
          </mxGeometry>
        </mxCell>
        <mxCell id="3avNDPh2e-aEmpYnnHf4-85" value="Enable colliders" style="rounded=1;whiteSpace=wrap;html=1;absoluteArcSize=1;arcSize=14;strokeWidth=2;" parent="3avNDPh2e-aEmpYnnHf4-84" vertex="1">
          <mxGeometry x="70" y="35" width="100" height="50" as="geometry" />
        </mxCell>
        <mxCell id="3avNDPh2e-aEmpYnnHf4-86" value="Tell &lt;font face=&quot;Courier New&quot;&gt;UBoardPawnMovementComponent &lt;/font&gt;it can start moving &lt;font face=&quot;Courier New&quot;&gt;this&lt;/font&gt;" style="rounded=1;whiteSpace=wrap;html=1;absoluteArcSize=1;arcSize=14;strokeWidth=2;" parent="3avNDPh2e-aEmpYnnHf4-84" vertex="1">
          <mxGeometry x="20" y="115" width="200" height="55" as="geometry" />
        </mxCell>
        <mxCell id="3avNDPh2e-aEmpYnnHf4-87" style="edgeStyle=orthogonalEdgeStyle;rounded=1;orthogonalLoop=1;jettySize=auto;html=1;curved=0;endArrow=open;endFill=0;strokeColor=#666666;strokeWidth=2;" parent="3avNDPh2e-aEmpYnnHf4-84" source="3avNDPh2e-aEmpYnnHf4-85" target="3avNDPh2e-aEmpYnnHf4-86" edge="1">
          <mxGeometry relative="1" as="geometry" />
        </mxCell>
        <mxCell id="3avNDPh2e-aEmpYnnHf4-88" value="AGhostPawn::Start" style="swimlane;whiteSpace=wrap;html=1;fontFamily=Courier New;fillStyle=hatch;fillColor=#CC99FF;fontColor=#333333;strokeColor=default;swimlaneFillColor=#CC99FF;rounded=1;swimlaneLine=0;glass=0;shadow=0;" parent="3avNDPh2e-aEmpYnnHf4-82" vertex="1">
          <mxGeometry x="310" y="28" width="200" height="242" as="geometry">
            <mxRectangle x="510" y="100" width="180" height="30" as="alternateBounds" />
          </mxGeometry>
        </mxCell>
        <mxCell id="3avNDPh2e-aEmpYnnHf4-105" style="edgeStyle=orthogonalEdgeStyle;rounded=1;orthogonalLoop=1;jettySize=auto;html=1;curved=0;strokeColor=#666666;strokeWidth=2;" parent="3avNDPh2e-aEmpYnnHf4-88" source="3avNDPh2e-aEmpYnnHf4-89" target="3avNDPh2e-aEmpYnnHf4-104" edge="1">
          <mxGeometry relative="1" as="geometry" />
        </mxCell>
        <mxCell id="3avNDPh2e-aEmpYnnHf4-89" value="ABoardPawn::Start" style="rounded=1;whiteSpace=wrap;html=1;absoluteArcSize=1;arcSize=14;strokeWidth=2;fontFamily=Courier New;" parent="3avNDPh2e-aEmpYnnHf4-88" vertex="1">
          <mxGeometry x="20" y="35" width="160" height="50" as="geometry" />
        </mxCell>
        <mxCell id="3avNDPh2e-aEmpYnnHf4-90" value="Call &lt;font face=&quot;Courier New&quot;&gt;OnNewTile &lt;/font&gt;to start moving" style="rounded=1;whiteSpace=wrap;html=1;absoluteArcSize=1;arcSize=14;strokeWidth=2;" parent="3avNDPh2e-aEmpYnnHf4-88" vertex="1">
          <mxGeometry x="10" y="172" width="180" height="48" as="geometry" />
        </mxCell>
        <mxCell id="3avNDPh2e-aEmpYnnHf4-106" style="edgeStyle=orthogonalEdgeStyle;rounded=1;orthogonalLoop=1;jettySize=auto;html=1;curved=0;strokeColor=#666666;strokeWidth=2;" parent="3avNDPh2e-aEmpYnnHf4-88" source="3avNDPh2e-aEmpYnnHf4-104" target="3avNDPh2e-aEmpYnnHf4-90" edge="1">
          <mxGeometry relative="1" as="geometry" />
        </mxCell>
        <mxCell id="3avNDPh2e-aEmpYnnHf4-104" value="Set &lt;font face=&quot;Courier New&quot;&gt;HOME &lt;/font&gt;mode" style="rounded=1;whiteSpace=wrap;html=1;absoluteArcSize=1;arcSize=14;strokeWidth=2;" parent="3avNDPh2e-aEmpYnnHf4-88" vertex="1">
          <mxGeometry x="40" y="108.5" width="120" height="35" as="geometry" />
        </mxCell>
        <mxCell id="m86j_w4GEydEWXvcKP1D-1" value="AWalkableTile::Start" style="swimlane;whiteSpace=wrap;html=1;fontFamily=Courier New;fillStyle=hatch;fillColor=#99FF99;fontColor=#333333;strokeColor=default;swimlaneFillColor=#99FF99;rounded=1;swimlaneLine=0;glass=0;shadow=0;" parent="3avNDPh2e-aEmpYnnHf4-82" vertex="1">
          <mxGeometry x="590" y="28" width="180" height="112" as="geometry">
            <mxRectangle x="510" y="100" width="180" height="30" as="alternateBounds" />
          </mxGeometry>
        </mxCell>
        <mxCell id="m86j_w4GEydEWXvcKP1D-3" value="SpawnFood" style="rounded=1;whiteSpace=wrap;html=1;absoluteArcSize=1;arcSize=14;strokeWidth=2;fontFamily=Courier New;" parent="m86j_w4GEydEWXvcKP1D-1" vertex="1">
          <mxGeometry x="32" y="34" width="120" height="50" as="geometry" />
        </mxCell>
        <mxCell id="3avNDPh2e-aEmpYnnHf4-110" style="edgeStyle=orthogonalEdgeStyle;rounded=1;orthogonalLoop=1;jettySize=auto;html=1;strokeColor=#666666;curved=0;endArrow=open;endFill=0;strokeWidth=2;" parent="3avNDPh2e-aEmpYnnHf4-159" source="3avNDPh2e-aEmpYnnHf4-8" target="3avNDPh2e-aEmpYnnHf4-109" edge="1">
          <mxGeometry relative="1" as="geometry" />
        </mxCell>
        <mxCell id="3avNDPh2e-aEmpYnnHf4-129" value="UTimeModeManager::Init" style="swimlane;whiteSpace=wrap;html=1;fontFamily=Courier New;fillStyle=hatch;fillColor=#FF9999;fontColor=#333333;strokeColor=default;swimlaneFillColor=#FF9999;rounded=1;swimlaneLine=0;glass=0;shadow=0;" parent="3avNDPh2e-aEmpYnnHf4-159" vertex="1">
          <mxGeometry x="250" y="68" width="200" height="270" as="geometry">
            <mxRectangle x="510" y="100" width="180" height="30" as="alternateBounds" />
          </mxGeometry>
        </mxCell>
        <mxCell id="3avNDPh2e-aEmpYnnHf4-130" value="Clear all timers, schedule progresses and settings" style="rounded=1;whiteSpace=wrap;html=1;absoluteArcSize=1;arcSize=14;strokeWidth=2;fontFamily=Helvetica;" parent="3avNDPh2e-aEmpYnnHf4-129" vertex="1">
          <mxGeometry x="20" y="35" width="160" height="50" as="geometry" />
        </mxCell>
        <mxCell id="3avNDPh2e-aEmpYnnHf4-134" style="edgeStyle=orthogonalEdgeStyle;rounded=1;orthogonalLoop=1;jettySize=auto;html=1;curved=0;endArrow=open;endFill=0;strokeColor=#666666;strokeWidth=2;" parent="3avNDPh2e-aEmpYnnHf4-129" source="3avNDPh2e-aEmpYnnHf4-131" target="3avNDPh2e-aEmpYnnHf4-133" edge="1">
          <mxGeometry relative="1" as="geometry" />
        </mxCell>
        <mxCell id="3avNDPh2e-aEmpYnnHf4-131" value="Set &lt;font face=&quot;Courier New&quot;&gt;CurrentLevelSettings&lt;/font&gt;" style="rounded=1;whiteSpace=wrap;html=1;absoluteArcSize=1;arcSize=14;strokeWidth=2;" parent="3avNDPh2e-aEmpYnnHf4-129" vertex="1">
          <mxGeometry x="10" y="117" width="180" height="35" as="geometry" />
        </mxCell>
        <mxCell id="3avNDPh2e-aEmpYnnHf4-132" style="edgeStyle=orthogonalEdgeStyle;rounded=1;orthogonalLoop=1;jettySize=auto;html=1;curved=0;endArrow=open;endFill=0;strokeColor=#666666;strokeWidth=2;" parent="3avNDPh2e-aEmpYnnHf4-129" source="3avNDPh2e-aEmpYnnHf4-130" target="3avNDPh2e-aEmpYnnHf4-131" edge="1">
          <mxGeometry relative="1" as="geometry" />
        </mxCell>
        <mxCell id="3avNDPh2e-aEmpYnnHf4-133" value="Apply settings to the &lt;font face=&quot;Courier New&quot;&gt;AGhostPawns &lt;/font&gt;and &lt;font face=&quot;Courier New&quot;&gt;APacmanPawn &lt;/font&gt;(e.g. speed, cooldowns, ...)" style="rounded=1;whiteSpace=wrap;html=1;absoluteArcSize=1;arcSize=14;strokeWidth=2;" parent="3avNDPh2e-aEmpYnnHf4-129" vertex="1">
          <mxGeometry x="10" y="180" width="180" height="70" as="geometry" />
        </mxCell>
        <mxCell id="3avNDPh2e-aEmpYnnHf4-138" style="edgeStyle=orthogonalEdgeStyle;rounded=1;orthogonalLoop=1;jettySize=auto;html=1;curved=0;endArrow=open;endFill=0;strokeColor=#666666;strokeWidth=2;" parent="3avNDPh2e-aEmpYnnHf4-159" source="3avNDPh2e-aEmpYnnHf4-109" target="3avNDPh2e-aEmpYnnHf4-129" edge="1">
          <mxGeometry relative="1" as="geometry" />
        </mxCell>
        <mxCell id="3avNDPh2e-aEmpYnnHf4-81" style="edgeStyle=orthogonalEdgeStyle;rounded=1;orthogonalLoop=1;jettySize=auto;html=1;curved=0;endArrow=open;endFill=0;strokeColor=#666666;strokeWidth=2;" parent="3avNDPh2e-aEmpYnnHf4-159" source="3avNDPh2e-aEmpYnnHf4-139" target="3avNDPh2e-aEmpYnnHf4-60" edge="1">
          <mxGeometry relative="1" as="geometry">
            <mxPoint x="600" y="418" as="sourcePoint" />
          </mxGeometry>
        </mxCell>
        <mxCell id="3avNDPh2e-aEmpYnnHf4-143" value="UTimeModeManager::Start" style="swimlane;whiteSpace=wrap;html=1;fontFamily=Courier New;fillStyle=hatch;fillColor=#FF9999;fontColor=#333333;strokeColor=default;swimlaneFillColor=#FF9999;rounded=1;swimlaneLine=0;glass=0;shadow=0;" parent="3avNDPh2e-aEmpYnnHf4-159" vertex="1">
          <mxGeometry x="880" y="885" width="200" height="110" as="geometry">
            <mxRectangle x="510" y="100" width="180" height="30" as="alternateBounds" />
          </mxGeometry>
        </mxCell>
        <mxCell id="3avNDPh2e-aEmpYnnHf4-144" value="Start modes schedule and ghosts schedule timers" style="rounded=1;whiteSpace=wrap;html=1;absoluteArcSize=1;arcSize=14;strokeWidth=2;fontFamily=Helvetica;" parent="3avNDPh2e-aEmpYnnHf4-143" vertex="1">
          <mxGeometry x="20" y="35" width="160" height="50" as="geometry" />
        </mxCell>
        <mxCell id="3avNDPh2e-aEmpYnnHf4-145" style="edgeStyle=orthogonalEdgeStyle;rounded=0;orthogonalLoop=1;jettySize=auto;html=1;curved=1;endArrow=open;endFill=0;" parent="3avNDPh2e-aEmpYnnHf4-143" edge="1">
          <mxGeometry relative="1" as="geometry">
            <mxPoint x="100" y="152" as="sourcePoint" />
          </mxGeometry>
        </mxCell>
        <mxCell id="3avNDPh2e-aEmpYnnHf4-150" style="edgeStyle=elbowEdgeStyle;rounded=1;orthogonalLoop=1;jettySize=auto;html=1;endArrow=open;endFill=0;curved=0;strokeColor=#666666;strokeWidth=2;" parent="3avNDPh2e-aEmpYnnHf4-159" source="3avNDPh2e-aEmpYnnHf4-141" target="3avNDPh2e-aEmpYnnHf4-143" edge="1">
          <mxGeometry relative="1" as="geometry">
            <Array as="points">
              <mxPoint x="850" y="908" />
            </Array>
          </mxGeometry>
        </mxCell>
        <mxCell id="3avNDPh2e-aEmpYnnHf4-182" style="edgeStyle=orthogonalEdgeStyle;rounded=1;orthogonalLoop=1;jettySize=auto;html=1;curved=0;endArrow=open;endFill=0;strokeColor=#666666;strokeWidth=2;" parent="3avNDPh2e-aEmpYnnHf4-159" edge="1">
          <mxGeometry relative="1" as="geometry">
            <mxPoint x="580" y="1008.9999999999995" as="sourcePoint" />
            <mxPoint x="580" y="1051" as="targetPoint" />
          </mxGeometry>
        </mxCell>
        <mxCell id="3avNDPh2e-aEmpYnnHf4-194" style="edgeStyle=orthogonalEdgeStyle;rounded=1;orthogonalLoop=1;jettySize=auto;html=1;strokeColor=#666666;curved=0;endArrow=open;endFill=0;strokeWidth=2;" parent="3avNDPh2e-aEmpYnnHf4-159" source="3avNDPh2e-aEmpYnnHf4-162" target="3avNDPh2e-aEmpYnnHf4-178" edge="1">
          <mxGeometry relative="1" as="geometry" />
        </mxCell>
        <mxCell id="3avNDPh2e-aEmpYnnHf4-162" value="Level cleared" style="strokeWidth=2;html=1;shape=mxgraph.flowchart.start_1;whiteSpace=wrap;fillColor=#FF9999;" parent="3avNDPh2e-aEmpYnnHf4-159" vertex="1">
          <mxGeometry x="530" y="989" width="100" height="60" as="geometry" />
        </mxCell>
        <mxCell id="3avNDPh2e-aEmpYnnHf4-166" style="edgeStyle=orthogonalEdgeStyle;rounded=1;orthogonalLoop=1;jettySize=auto;html=1;curved=0;endArrow=open;endFill=0;shadow=0;noJump=0;jumpStyle=arc;exitX=0.5;exitY=1;exitDx=0;exitDy=0;exitPerimeter=0;strokeColor=#666666;strokeWidth=2;" parent="3avNDPh2e-aEmpYnnHf4-159" source="3avNDPh2e-aEmpYnnHf4-164" target="3avNDPh2e-aEmpYnnHf4-172" edge="1">
          <mxGeometry relative="1" as="geometry">
            <Array as="points">
              <mxPoint x="730" y="1028" />
              <mxPoint x="830" y="1028" />
              <mxPoint x="830" y="370" />
            </Array>
          </mxGeometry>
        </mxCell>
        <mxCell id="3avNDPh2e-aEmpYnnHf4-164" value="Game over" style="strokeWidth=2;html=1;shape=mxgraph.flowchart.start_1;whiteSpace=wrap;fillColor=#FF9999;" parent="3avNDPh2e-aEmpYnnHf4-159" vertex="1">
          <mxGeometry x="680" y="989" width="100" height="60" as="geometry" />
        </mxCell>
        <mxCell id="3avNDPh2e-aEmpYnnHf4-188" style="edgeStyle=orthogonalEdgeStyle;rounded=1;orthogonalLoop=1;jettySize=auto;html=1;curved=0;endArrow=open;endFill=0;strokeColor=#666666;strokeWidth=2;" parent="3avNDPh2e-aEmpYnnHf4-159" source="3avNDPh2e-aEmpYnnHf4-171" target="3avNDPh2e-aEmpYnnHf4-172" edge="1">
          <mxGeometry relative="1" as="geometry" />
        </mxCell>
        <mxCell id="3avNDPh2e-aEmpYnnHf4-171" value="APacmanGameMode::StartPlay" style="swimlane;whiteSpace=wrap;html=1;rounded=1;swimlaneLine=0;collapsible=0;strokeColor=none;swimlaneFillColor=#999999;fillColor=#999999;fillStyle=cross-hatch;fontFamily=Courier New;labelBackgroundColor=default;" parent="3avNDPh2e-aEmpYnnHf4-159" vertex="1">
          <mxGeometry x="580" y="120" width="220" height="120" as="geometry" />
        </mxCell>
        <mxCell id="3avNDPh2e-aEmpYnnHf4-8" value="&lt;font face=&quot;Helvetica&quot;&gt;Call &lt;/font&gt;&lt;font face=&quot;Courier New&quot;&gt;BeginPlay &lt;/font&gt;&lt;font face=&quot;Helvetica&quot;&gt;on all objects&lt;/font&gt;" style="whiteSpace=wrap;html=1;fontFamily=Courier New;rounded=1;arcSize=14;strokeWidth=2;" parent="3avNDPh2e-aEmpYnnHf4-171" vertex="1">
          <mxGeometry x="50" y="40" width="120" height="60" as="geometry" />
        </mxCell>
        <mxCell id="3avNDPh2e-aEmpYnnHf4-192" style="edgeStyle=orthogonalEdgeStyle;rounded=1;orthogonalLoop=1;jettySize=auto;html=1;strokeWidth=2;endArrow=open;endFill=0;strokeColor=#666666;curved=0;" parent="3avNDPh2e-aEmpYnnHf4-159" source="3avNDPh2e-aEmpYnnHf4-174" target="3avNDPh2e-aEmpYnnHf4-162" edge="1">
          <mxGeometry relative="1" as="geometry" />
        </mxCell>
        <mxCell id="3avNDPh2e-aEmpYnnHf4-193" style="edgeStyle=orthogonalEdgeStyle;rounded=1;orthogonalLoop=1;jettySize=auto;html=1;strokeWidth=2;endArrow=open;endFill=0;strokeColor=#666666;curved=0;" parent="3avNDPh2e-aEmpYnnHf4-159" source="3avNDPh2e-aEmpYnnHf4-174" target="3avNDPh2e-aEmpYnnHf4-164" edge="1">
          <mxGeometry relative="1" as="geometry" />
        </mxCell>
        <mxCell id="3avNDPh2e-aEmpYnnHf4-174" value="APacmanGameMode::Start" style="swimlane;whiteSpace=wrap;html=1;rounded=1;swimlaneLine=0;collapsible=0;strokeColor=none;swimlaneFillColor=#999999;fillColor=#999999;fillStyle=cross-hatch;fontFamily=Courier New;labelBackgroundColor=default;" parent="3avNDPh2e-aEmpYnnHf4-159" vertex="1">
          <mxGeometry x="570" y="651" width="240" height="290" as="geometry" />
        </mxCell>
        <mxCell id="3avNDPh2e-aEmpYnnHf4-26" value="&lt;font face=&quot;Courier New&quot;&gt;APacmanGameMode::Start&lt;/font&gt;" style="rounded=1;whiteSpace=wrap;html=1;absoluteArcSize=1;arcSize=14;strokeWidth=2;" parent="3avNDPh2e-aEmpYnnHf4-174" vertex="1">
          <mxGeometry x="30" y="28" width="180" height="50" as="geometry" />
        </mxCell>
        <mxCell id="3avNDPh2e-aEmpYnnHf4-28" value="&lt;font&gt;APacmanLevelState::Start&lt;br&gt;&lt;br&gt;Call&amp;nbsp;&lt;font style=&quot;border-color: var(--border-color);&quot; face=&quot;Courier New&quot;&gt;Start&amp;nbsp;&lt;/font&gt;&lt;span style=&quot;font-family: Helvetica;&quot;&gt;on all &lt;br&gt;registered&amp;nbsp;&lt;/span&gt;&lt;font style=&quot;border-color: var(--border-color);&quot; face=&quot;Courier New&quot;&gt;IStartableStoppable&lt;br&gt;&lt;/font&gt;&lt;span style=&quot;font-family: Helvetica;&quot;&gt;objects&amp;nbsp;&lt;/span&gt;&lt;br&gt;&lt;/font&gt;" style="whiteSpace=wrap;html=1;fontFamily=Courier New;rounded=1;arcSize=14;strokeWidth=2;" parent="3avNDPh2e-aEmpYnnHf4-174" vertex="1">
          <mxGeometry x="10" y="108" width="220" height="80" as="geometry" />
        </mxCell>
        <mxCell id="3avNDPh2e-aEmpYnnHf4-141" value="&lt;font&gt;UTimeModeManager::Start&lt;/font&gt;" style="whiteSpace=wrap;html=1;fontFamily=Courier New;rounded=1;arcSize=14;strokeWidth=2;" parent="3avNDPh2e-aEmpYnnHf4-174" vertex="1">
          <mxGeometry x="30" y="225" width="180" height="50" as="geometry" />
        </mxCell>
        <mxCell id="3avNDPh2e-aEmpYnnHf4-29" style="edgeStyle=orthogonalEdgeStyle;rounded=1;orthogonalLoop=1;jettySize=auto;html=1;curved=0;endArrow=open;endFill=0;strokeColor=#666666;strokeWidth=2;" parent="3avNDPh2e-aEmpYnnHf4-174" edge="1">
          <mxGeometry relative="1" as="geometry">
            <mxPoint x="120" y="79" as="sourcePoint" />
            <mxPoint x="120" y="109" as="targetPoint" />
          </mxGeometry>
        </mxCell>
        <mxCell id="3avNDPh2e-aEmpYnnHf4-142" style="edgeStyle=orthogonalEdgeStyle;rounded=1;orthogonalLoop=1;jettySize=auto;html=1;curved=0;endArrow=open;endFill=0;strokeColor=#666666;strokeWidth=2;" parent="3avNDPh2e-aEmpYnnHf4-174" edge="1">
          <mxGeometry relative="1" as="geometry">
            <mxPoint x="120" y="189.00000000000045" as="sourcePoint" />
            <mxPoint x="120" y="226" as="targetPoint" />
          </mxGeometry>
        </mxCell>
        <mxCell id="3avNDPh2e-aEmpYnnHf4-185" style="edgeStyle=orthogonalEdgeStyle;rounded=1;orthogonalLoop=1;jettySize=auto;html=1;curved=0;endArrow=open;endFill=0;strokeColor=#666666;strokeWidth=2;" parent="3avNDPh2e-aEmpYnnHf4-159" edge="1">
          <mxGeometry relative="1" as="geometry">
            <mxPoint x="580" y="1101" as="sourcePoint" />
            <mxPoint x="580" y="1131" as="targetPoint" />
          </mxGeometry>
        </mxCell>
        <mxCell id="3avNDPh2e-aEmpYnnHf4-195" style="edgeStyle=orthogonalEdgeStyle;rounded=1;orthogonalLoop=1;jettySize=auto;html=1;strokeColor=#666666;curved=0;endArrow=open;endFill=0;strokeWidth=2;" parent="3avNDPh2e-aEmpYnnHf4-159" source="3avNDPh2e-aEmpYnnHf4-178" target="3avNDPh2e-aEmpYnnHf4-179" edge="1">
          <mxGeometry relative="1" as="geometry" />
        </mxCell>
        <mxCell id="3avNDPh2e-aEmpYnnHf4-178" value="&lt;font&gt;APacmanGameMode::Init&lt;/font&gt;" style="whiteSpace=wrap;html=1;fontFamily=Courier New;rounded=1;arcSize=14;strokeWidth=2;" parent="3avNDPh2e-aEmpYnnHf4-159" vertex="1">
          <mxGeometry x="490" y="1091" width="180" height="50" as="geometry" />
        </mxCell>
        <mxCell id="3avNDPh2e-aEmpYnnHf4-197" style="edgeStyle=orthogonalEdgeStyle;rounded=1;orthogonalLoop=1;jettySize=auto;html=1;curved=0;strokeWidth=2;endArrow=open;endFill=0;strokeColor=#666666;" parent="3avNDPh2e-aEmpYnnHf4-159" source="3avNDPh2e-aEmpYnnHf4-179" target="3avNDPh2e-aEmpYnnHf4-164" edge="1">
          <mxGeometry relative="1" as="geometry" />
        </mxCell>
        <mxCell id="3avNDPh2e-aEmpYnnHf4-198" style="edgeStyle=orthogonalEdgeStyle;rounded=1;orthogonalLoop=1;jettySize=auto;html=1;curved=0;strokeWidth=2;endArrow=open;endFill=0;strokeColor=#666666;" parent="3avNDPh2e-aEmpYnnHf4-159" source="3avNDPh2e-aEmpYnnHf4-179" target="3avNDPh2e-aEmpYnnHf4-162" edge="1">
          <mxGeometry relative="1" as="geometry">
            <Array as="points">
              <mxPoint x="430" y="1186" />
              <mxPoint x="430" y="1009" />
            </Array>
          </mxGeometry>
        </mxCell>
        <mxCell id="3avNDPh2e-aEmpYnnHf4-179" value="&lt;font&gt;APacmanGameMode::Start&lt;/font&gt;" style="whiteSpace=wrap;html=1;fontFamily=Courier New;rounded=1;arcSize=14;strokeWidth=2;" parent="3avNDPh2e-aEmpYnnHf4-159" vertex="1">
          <mxGeometry x="490" y="1171" width="180" height="50" as="geometry" />
        </mxCell>
        <mxCell id="3avNDPh2e-aEmpYnnHf4-190" style="edgeStyle=orthogonalEdgeStyle;rounded=1;orthogonalLoop=1;jettySize=auto;html=1;curved=0;strokeColor=#666666;strokeWidth=2;" parent="3avNDPh2e-aEmpYnnHf4-159" source="3avNDPh2e-aEmpYnnHf4-189" target="3avNDPh2e-aEmpYnnHf4-171" edge="1">
          <mxGeometry relative="1" as="geometry" />
        </mxCell>
        <mxCell id="3avNDPh2e-aEmpYnnHf4-189" value="" style="strokeWidth=2;html=1;shape=mxgraph.flowchart.start_2;whiteSpace=wrap;fillColor=#00CC00;" parent="3avNDPh2e-aEmpYnnHf4-159" vertex="1">
          <mxGeometry x="670" y="43" width="40" height="40" as="geometry" />
        </mxCell>
      </root>
    </mxGraphModel>
  </diagram>
</mxfile>
